<svg width="124" height="124" viewBox="0 0 124 124" fill="none" xmlns="http://www.w3.org/2000/svg">
<path d="M44.324 17.4701C51.988 20.7611 58.554 25.3301 63.9 31.0451C66.026 29.1021 68.838 27.9021 71.932 27.8801C72.862 25.4051 73.826 22.2441 72.808 16.5951C71.971 11.9411 69.596 5.34606 63.133 0.0100647C49.324 -0.239935 35.702 4.17406 24.679 12.5101C31.346 13.0501 37.828 14.6801 44.324 17.4701Z" fill="black"/>
<path d="M77.019 15.8381C78.13 22.0071 77.168 25.9181 76.207 28.6401C78.493 29.4901 80.451 31.0071 81.844 32.9631C89.251 31.7201 96.226 31.5251 102.589 32.4141C109.109 33.3251 114.555 35.0211 118.534 36.5801C109.824 17.2731 91.521 3.20406 69.729 0.480064C74.318 5.77006 76.242 11.5261 77.019 15.8381Z" fill="black"/>
<path d="M29.436 58.5271C41.203 49.6351 53.794 45.1211 60.416 43.1881C59.605 40.2951 59.907 37.1851 61.268 34.5041C56.241 28.9711 49.992 24.5571 42.638 21.4001C35.121 18.1731 27.653 16.5961 19.83 16.5901C7.644 27.9211 0 44.0761 0 61.9911C0 70.7411 1.831 79.0671 5.115 86.6231C9.881 78.1711 17.606 67.4671 29.436 58.5271Z" fill="black"/>
<path d="M72.022 47.7271C76.3226 47.7271 79.809 44.2407 79.809 39.9401C79.809 35.6394 76.3226 32.1531 72.022 32.1531C67.7213 32.1531 64.235 35.6394 64.235 39.9401C64.235 44.2407 67.7213 47.7271 72.022 47.7271Z" fill="black"/>
<path d="M101.995 36.6491C96.394 35.8681 90.25 35.9841 83.703 36.9871C84.729 41.0431 83.555 45.3941 80.625 48.3811C86.181 52.5151 92.209 57.8671 98.205 64.0061C105.884 71.8651 112.29 80.1271 117.718 89.1601C121.737 80.9501 124 71.7311 124 61.9911C124 55.0671 122.842 48.4131 120.739 42.1901C117.585 40.6911 110.785 37.8781 101.995 36.6491Z" fill="black"/>
<path d="M58.571 90.6711C62.878 75.4061 64.76 60.4261 65.584 50.1241C64.319 49.3211 63.217 48.2911 62.328 47.0891C56.236 48.8061 43.695 53.1111 32.013 61.9391C19.48 71.4111 11.777 82.9791 7.41003 91.3591C15.536 106.408 29.7 117.736 46.636 122.07C50.078 114.844 54.764 104.162 58.571 90.6711Z" fill="black"/>
<path d="M95.146 66.9941C88.871 60.5711 82.591 55.0651 76.899 50.9651C74.656 51.9621 72.146 52.2461 69.737 51.7811C68.844 62.2181 66.906 76.8781 62.686 91.8331C58.951 105.073 54.396 115.643 50.931 122.991C54.525 123.641 58.221 124 62 124C84.667 124 104.522 111.765 115.336 93.5571C109.813 83.9501 103.207 75.2441 95.146 66.9941Z" fill="black"/>
</svg>
