<svg width="139" height="91" viewBox="0 0 139 91" fill="none" xmlns="http://www.w3.org/2000/svg">
<path d="M79.5706 0H20.1412C20.1412 3.50367 20.2603 6.87252 20.4625 10.1312C11.3671 8.54132 1.66333 11.8082 0.125408 24.9055C-1.79088 41.2302 18.649 56.0192 34.4212 61.4515C40.4816 72.5478 47.0899 79.7639 51.2389 83.9466C60.5676 93.3511 98.5737 93.3511 107.904 83.9466C117.233 74.5405 139 49.8619 139 0H79.5706ZM8.41682 30.6534C6.73048 25.7621 8.41682 17.4164 17.054 17.4164C18.6473 17.4164 20.0173 17.8718 21.2307 18.6051C22.705 30.9049 25.5623 41.2795 29.0279 49.9606C17.5595 44.3886 10.3315 36.1974 8.41682 30.6534Z" fill="black"/>
</svg>
